# xmcd
#
# Track frame offsets:
#	150
#	15745
#	38657
#	57125
#	87867
#	104032
#	118537
#	138237
#	160565
#	184790
#	206257
#	223640
#	242750
#	264450
#
# Disc length: 3807 seconds
#
# Revision: 0
# Processed by: cddbd v1.4PL0 Copyright (c) Steve Scherf et al.
# Submitted via: dBpowerAMP V4.0
#
DISCID=b70edd0e
DTITLE=Groovetones - The Scratch
DYEAR=1990
DGENRE=Blues
TTITLE0=Can't keep your own man
TTITLE1=A Lady in there somewhere
TTITLE2=Train of love
TTITLE3=The right love
TTITLE4=Sad love songs
TTITLE5=The scratch
TTITLE6=When it rains it pours
TTITLE7=Money honey
TTITLE8=Bad (as things may seem)
TTITLE9=Rockbottom
TTITLE10=Finders, keepers
TTITLE11=Sink or swim
TTITLE12=Ride, ride, ride
TTITLE13=Heartbreaker
EXTD=
EXTT0=
EXTT1=
EXTT2=
EXTT3=
EXTT4=
EXTT5=
EXTT6=
EXTT7=
EXTT8=
EXTT9=
EXTT10=
EXTT11=
EXTT12=
EXTT13=
PLAYORDER=
